<svg xmlns="http://www.w3.org/2000/svg" width="99.708" height="45" viewBox="0 0 99.708 45"><path d="M710.8,94.264a5.593,5.593,0,0,0,5.548,5.548,5.51,5.51,0,0,0,4.672-2.556,1.861,1.861,0,0,1,2.518-.547,1.819,1.819,0,0,1,.511,2.518,9.15,9.15,0,1,1-7.7-14.126,9.227,9.227,0,0,1,7.957,4.563,1.833,1.833,0,0,1-.658,2.482,1.866,1.866,0,0,1-2.482-.657A5.557,5.557,0,0,0,710.8,94.264Zm19.188-18.11a1.8,1.8,0,0,0-1.825,1.789V101.6a1.807,1.807,0,1,0,3.614,0V77.943A1.792,1.792,0,0,0,729.989,76.154Zm23.725,18.238v7.2a1.774,1.774,0,0,1-1.836,1.835,1.933,1.933,0,0,1-1.762-1.835,8.011,8.011,0,0,1-5.435,1.835,9.017,9.017,0,0,1-9.29-9.033,9.23,9.23,0,0,1,9.29-9.289A9.016,9.016,0,0,1,753.715,94.392Zm-3.6,0a5.551,5.551,0,0,0-5.435-5.691,5.768,5.768,0,0,0-5.691,5.691,5.55,5.55,0,0,0,5.691,5.435A5.332,5.332,0,0,0,750.116,94.392Zm16.375-9.29a9.168,9.168,0,0,0-9.162,9.162V101.6a1.807,1.807,0,1,0,3.614,0V94.264a5.546,5.546,0,0,1,5.549-5.548,1.83,1.83,0,0,0,1.824-1.825A1.8,1.8,0,0,0,766.491,85.1Zm19.344.621a1.837,1.837,0,0,0-2.556-.22l-8.286,5.439V77.947a1.823,1.823,0,0,0-1.824-1.789,1.792,1.792,0,0,0-1.789,1.789V101.6a1.8,1.8,0,0,0,1.789,1.824,1.829,1.829,0,0,0,1.824-1.824V95.213l1.132-.767,6.935,8.323a1.742,1.742,0,0,0,2.518.218,1.793,1.793,0,0,0,.256-2.518l-6.643-7.994,6.387-4.2A1.837,1.837,0,0,0,785.836,85.723Zm21.1,8.541a1.8,1.8,0,0,1-1.825,1.789H792.513a5.565,5.565,0,0,0,5.256,3.76,7.169,7.169,0,0,0,4.089-1.205,1.745,1.745,0,0,1,2.409.84,1.9,1.9,0,0,1-.876,2.409,8.937,8.937,0,0,1-5.621,1.569,9.162,9.162,0,0,1,0-18.324A8.988,8.988,0,0,1,806.932,94.264Zm-3.87-1.825a5.339,5.339,0,0,0-5.292-3.723,5.58,5.58,0,0,0-5.256,3.723Zm-63.093,21.723a.687.687,0,0,1-.7.682h-4.807a2.123,2.123,0,0,0,2.006,1.436,2.737,2.737,0,0,0,1.56-.46.666.666,0,0,1,.919.32.725.725,0,0,1-.334.92,3.411,3.411,0,0,1-2.145.6,3.5,3.5,0,0,1,0-6.993A3.43,3.43,0,0,1,739.968,114.161Zm-1.476-.7a2.038,2.038,0,0,0-2.021-1.42,2.13,2.13,0,0,0-2.006,1.42Zm6.352-2.8a3.5,3.5,0,0,0-3.5,3.5v2.8a.69.69,0,1,0,1.379,0v-2.8a2.117,2.117,0,1,1,4.234,0v2.8a.69.69,0,1,0,1.379,0v-2.8A3.5,3.5,0,0,0,744.844,110.664Zm11.869,3.5a.686.686,0,0,1-.7.682h-4.806a2.123,2.123,0,0,0,2.006,1.436,2.736,2.736,0,0,0,1.559-.46.667.667,0,0,1,.92.32.727.727,0,0,1-.334.92,3.411,3.411,0,0,1-2.145.6,3.5,3.5,0,1,1,0-6.993A3.43,3.43,0,0,1,756.713,114.161Zm-1.477-.7a2.038,2.038,0,0,0-2.019-1.42,2.13,2.13,0,0,0-2.006,1.42Zm6.346-2.8a3.5,3.5,0,0,0-3.5,3.5v2.8a.69.69,0,1,0,1.379,0v-2.8a2.117,2.117,0,0,1,2.118-2.118.7.7,0,0,0,.7-.7A.687.687,0,0,0,761.583,110.664Zm8.508,3.5v3.5a3.5,3.5,0,0,1-6.645,1.533.681.681,0,0,1,.321-.919.69.69,0,0,1,.919.306,2.118,2.118,0,0,0,4.026-.877v-.766a3.487,3.487,0,0,1-5.614-2.772,3.5,3.5,0,1,1,6.993,0Zm-1.379,0a2.117,2.117,0,1,0-2.117,2.118A2.125,2.125,0,0,0,768.712,114.161Zm3.455-3.5a.687.687,0,0,0-.7.682v5.615a.69.69,0,1,0,1.379,0v-5.615A.684.684,0,0,0,772.167,110.664Zm9.013,3.525v2.73a.674.674,0,0,1-.7.7.735.735,0,0,1-.669-.7,3.036,3.036,0,0,1-2.061.7,3.421,3.421,0,0,1-3.525-3.427,3.5,3.5,0,0,1,3.525-3.525A3.42,3.42,0,0,1,781.18,114.189Zm-1.365,0a2.106,2.106,0,0,0-2.061-2.16,2.189,2.189,0,0,0-2.16,2.16,2.105,2.105,0,0,0,2.16,2.061A2.022,2.022,0,0,0,779.815,114.189Z" transform="translate(-707.224 -76.154)" fill="#00e082"/></svg>