<svg xmlns="http://www.w3.org/2000/svg"  viewBox="0 0 468 468" width="58px" height="58px"><path fill="#00e082" d="M310.981,442H12c-6.627,0-12-5.373-12-12V38c0-6.627,5.373-12,12-12h298.981c6.627,0,12,5.373,12,12 v86.168c0,6.627-5.373,12-12,12c-6.628,0-12-5.373-12-12V50H24v368h274.981v-74.168c0-6.627,5.372-12,12-12c6.627,0,12,5.373,12,12 V430C322.981,436.627,317.608,442,310.981,442z"/><polygon fill="#00e082" points="468,234.085 363.19,134 363.19,184.526 184.796,184.526 184.796,283.474 363.19,283.474 363.19,334"/></svg>